<?xml version="1.0" encoding="utf-8"?>
<!-- Generator: Adobe Illustrator 22.1.0, SVG Export Plug-In . SVG Version: 6.00 Build 0)  -->
<svg version="1.1" id="Capa_1" xmlns="http://www.w3.org/2000/svg" xmlns:xlink="http://www.w3.org/1999/xlink" x="0px" y="0px"
	 viewBox="0 0 327 217.5" style="enable-background:new 0 0 327 217.5;" xml:space="preserve">
<g>
	<path style="fill:#FFFFFF;" d="M129.8,118.5c-1.4-1.4-3.2-2.6-5.1-3.4c-1.9-0.8-4.1-1.3-6.3-1.3h-26c-2.2,0-4.3,0.4-6.3,1.3
		c-1.9,0.8-3.7,2-5.1,3.4c-1.4,1.5-2.6,3.2-3.4,5.1c-0.8,1.9-1.3,4-1.3,6.2v6.3c0,2.2,0.4,4.3,1.3,6.3c0.8,1.9,2,3.7,3.4,5.1
		c1.4,1.4,3.2,2.6,5.1,3.4c1.9,0.8,4.1,1.3,6.3,1.3h26c2.2,0,4.3-0.4,6.3-1.3c1.9-0.8,3.7-2,5.1-3.4c1.4-1.4,2.6-3.2,3.4-5.1
		c0.8-1.9,1.3-4.1,1.3-6.3v-6.3c0-2.2-0.4-4.3-1.3-6.2C132.4,121.7,131.2,119.9,129.8,118.5z M127.3,136.1c0,1.2-0.2,2.4-0.7,3.5
		c-0.5,1.1-1.1,2-1.9,2.8c-0.8,0.8-1.8,1.4-2.9,1.9c-1.1,0.5-2.2,0.7-3.5,0.7h-26c-1.2,0-2.4-0.2-3.5-0.7c-1.1-0.5-2-1.1-2.8-1.9
		c-0.8-0.8-1.4-1.7-1.9-2.8c-0.5-1.1-0.7-2.2-0.7-3.5v-6.3c0-1.2,0.2-2.3,0.7-3.4c0.5-1.1,1.1-2,1.9-2.8c0.8-0.8,1.7-1.5,2.8-1.9
		c1.1-0.5,2.2-0.7,3.5-0.7h26c1.2,0,2.4,0.2,3.5,0.7c1.1,0.5,2,1.1,2.8,1.9c0.8,0.8,1.5,1.8,1.9,2.8c0.5,1.1,0.7,2.2,0.7,3.4V136.1z
		"/>
	<path style="fill:#FFFFFF;" d="M196.1,152.2l-0.8-1.1c-0.8-1-1.6-2.1-2.5-3.3c-0.9-1.2-1.8-2.4-2.7-3.6l-2.8-3.7
		c-0.7-0.9-1.4-1.9-2-2.7c0.7-0.3,1.4-0.6,2-0.9c0.5-0.3,0.9-0.6,1.4-0.9v0.1l1.1-1c1.2-1.2,2.2-2.5,2.9-4c0.7-1.5,1-3.1,1-4.9
		c0-2.1-0.5-4.2-1.6-6c-1.1-1.8-2.5-3.3-4.2-4.4c-2.1-1.3-4.5-2-7.1-2h-38.3v38.4h7.2v-13.6h27.2l10.2,13.6H196.1z M183.1,131
		c-0.7,0.3-1.4,0.4-2.1,0.4h-31.3V121h31.1c0.8,0,1.5,0.1,2.2,0.4c0.7,0.3,1.3,0.7,1.8,1.1c0.5,0.5,1,1,1.3,1.7
		c0.3,0.6,0.5,1.3,0.5,2c0,0.7-0.1,1.4-0.4,2c-0.3,0.6-0.7,1.2-1.2,1.7C184.4,130.4,183.8,130.7,183.1,131z"/>
	<path style="fill:#FFFFFF;" d="M250.3,147.8c-0.9-1.2-1.8-2.4-2.7-3.6l-2.8-3.7c-0.7-0.9-1.4-1.9-2-2.7c0.7-0.3,1.4-0.6,2-0.9
		c0.5-0.3,0.9-0.6,1.4-0.9v0.1l1.1-1c1.2-1.2,2.2-2.5,2.9-4c0.7-1.5,1-3.1,1-4.9c0-2.1-0.5-4.2-1.6-6c-1.1-1.8-2.5-3.3-4.2-4.4
		c-2.1-1.3-4.5-2-7.1-2H200v38.4h7.2v-13.6h27.2l10.2,13.6h9.1l-0.8-1.1C252,150.1,251.2,149,250.3,147.8z M240.5,131
		c-0.7,0.3-1.4,0.4-2.1,0.4h-31.3V121h31.1c0.8,0,1.5,0.1,2.2,0.4c0.7,0.3,1.3,0.7,1.8,1.1c0.5,0.5,1,1,1.3,1.7
		c0.3,0.6,0.5,1.3,0.5,2c0,0.7-0.1,1.4-0.4,2c-0.3,0.6-0.7,1.2-1.2,1.7C241.8,130.4,241.2,130.7,240.5,131z"/>
	<path style="fill:#FFFFFF;" d="M315,123.6c-0.8-1.9-2-3.7-3.4-5.1c-1.4-1.4-3.2-2.6-5.1-3.4c-1.9-0.8-4.1-1.3-6.3-1.3h-26
		c-2.2,0-4.3,0.4-6.3,1.3c-1.9,0.8-3.7,2-5.1,3.4c-1.4,1.5-2.6,3.2-3.4,5.1c-0.8,1.9-1.3,4-1.3,6.2v6.3c0,2.2,0.4,4.3,1.3,6.3
		c0.8,1.9,2,3.7,3.4,5.1c1.4,1.4,3.2,2.6,5.1,3.4c1.9,0.8,4.1,1.3,6.3,1.3h26c2.2,0,4.3-0.4,6.3-1.3c1.9-0.8,3.7-2,5.1-3.4
		c1.5-1.4,2.6-3.2,3.4-5.1c0.8-1.9,1.3-4.1,1.3-6.3v-6.3C316.2,127.6,315.8,125.5,315,123.6z M309.1,136.1c0,1.2-0.2,2.4-0.7,3.5
		c-0.5,1.1-1.1,2-1.9,2.8c-0.8,0.8-1.8,1.4-2.9,1.9c-1.1,0.5-2.2,0.7-3.5,0.7h-26c-1.2,0-2.4-0.2-3.5-0.7c-1.1-0.5-2-1.1-2.8-1.9
		c-0.8-0.8-1.4-1.7-1.9-2.8c-0.5-1.1-0.7-2.2-0.7-3.5v-6.3c0-1.2,0.2-2.3,0.7-3.4c0.5-1.1,1.1-2,1.9-2.8c0.8-0.8,1.7-1.5,2.8-1.9
		c1.1-0.5,2.2-0.7,3.5-0.7h26c1.2,0,2.4,0.2,3.5,0.7c1.1,0.5,2,1.1,2.8,1.9c0.8,0.8,1.5,1.8,1.9,2.8c0.5,1.1,0.7,2.2,0.7,3.4V136.1z
		"/>
	<path style="fill:#FFFFFF;" d="M65.3,116.4c-0.8-0.7-1.6-1.4-2.6-1.8c-1-0.5-2-0.7-3-0.7l-0.8-0.1c-0.7,0-1.3,0.1-2,0.3
		c-0.7,0.2-1.3,0.4-1.8,0.7c-0.9,0.5-1.8,1.2-2.4,2.1c-0.7,0.8-1.2,1.7-1.5,2.5l-11.7,24.6c-1.9-3.9-3.7-7.8-5.6-11.7
		c-2-4.3-4-8.5-6.1-12.7l-0.3-0.6c-0.1-0.4-0.4-0.8-0.7-1.3c-0.3-0.4-0.7-0.9-1.1-1.3c-0.4-0.4-0.9-0.8-1.4-1.1
		c-0.5-0.3-1-0.6-1.4-0.7c-0.9-0.3-1.9-0.5-3.1-0.5c0,0,0,0,0,0l-0.9,0.1c-1.1,0.1-2.1,0.3-3.1,0.8c-1,0.4-1.9,1-2.6,1.8
		c-0.8,0.7-1.4,1.6-1.8,2.5c-0.5,0.9-0.7,1.9-0.7,3v30.4H18l0-30.6h2.8l12.5,26.2c0.7,1.4,1.5,2.5,2.2,3.2c0.8,0.8,2,1.2,3.6,1.3
		h0.9c0.6,0,1.3-0.2,1.9-0.4c0.6-0.3,1.1-0.6,1.5-1.1c0.4-0.4,0.8-0.9,1.2-1.5c0.3-0.5,0.6-1,0.9-1.6l7.1-14.8
		c0.9-1.8,1.6-3.3,2.1-4.5c0.6-1.2,1.1-2.3,1.4-3.1l1.8-3.7h2.9c0,0,0,0,0,0l0,30.6H68v-30.5c0-0.9-0.3-1.9-0.8-2.8
		C66.7,118,66.1,117.1,65.3,116.4z"/>
	<rect x="10.7" y="164.1" style="fill:#FFFFFF;" width="5.8" height="5.8"/>
	<rect x="31.3" y="164.1" style="fill:#FFFFFF;" width="5.8" height="5.8"/>
	<rect x="51.9" y="164.1" style="fill:#FFFFFF;" width="5.8" height="5.8"/>
	<rect x="62.2" y="164.1" style="fill:#FFFFFF;" width="5.8" height="5.8"/>
	<rect x="31.3" y="173.8" style="fill:#FFFFFF;" width="5.8" height="5.8"/>
	<rect x="62.2" y="173.8" style="fill:#FFFFFF;" width="5.8" height="5.8"/>
	<rect x="21" y="183.4" style="fill:#FFFFFF;" width="5.8" height="5.8"/>
	<rect x="41.6" y="183.4" style="fill:#FFFFFF;" width="5.8" height="5.8"/>
	<rect x="31.3" y="193.1" style="fill:#FFFFFF;" width="5.8" height="5.8"/>
	<rect x="51.9" y="193.1" style="fill:#FFFFFF;" width="5.8" height="5.8"/>
	<rect x="10.7" y="193.1" style="fill:#FFFFFF;" width="5.8" height="5.8"/>
	<rect x="41.6" y="202.7" style="fill:#FFFFFF;" width="5.8" height="5.8"/>
	<rect x="10.2" y="8.4" style="fill:#FFFFFF;" width="6.8" height="6.8"/>
	<rect x="20.5" y="8.4" style="fill:#FFFFFF;" width="6.8" height="6.8"/>
	<rect x="30.8" y="8.4" style="fill:#FFFFFF;" width="6.8" height="6.8"/>
	<rect x="41.1" y="8.4" style="fill:#FFFFFF;" width="6.8" height="6.8"/>
	<rect x="51.4" y="8.4" style="fill:#FFFFFF;" width="6.8" height="6.8"/>
	<rect x="61.7" y="8.4" style="fill:#FFFFFF;" width="6.8" height="6.8"/>
	<rect x="10.2" y="18.1" style="fill:#FFFFFF;" width="6.8" height="6.8"/>
	<rect x="20.5" y="18.1" style="fill:#FFFFFF;" width="6.8" height="6.8"/>
	<rect x="30.8" y="18.1" style="fill:#FFFFFF;" width="6.8" height="6.8"/>
	<rect x="41.1" y="18.1" style="fill:#FFFFFF;" width="6.8" height="6.8"/>
	<rect x="61.7" y="18.1" style="fill:#FFFFFF;" width="6.8" height="6.8"/>
	<rect x="10.2" y="27.8" style="fill:#FFFFFF;" width="6.8" height="6.8"/>
	<rect x="20.5" y="27.8" style="fill:#FFFFFF;" width="6.8" height="6.8"/>
	<rect x="30.8" y="27.8" style="fill:#FFFFFF;" width="6.8" height="6.8"/>
	<rect x="41.1" y="27.8" style="fill:#FFFFFF;" width="6.8" height="6.8"/>
	<rect x="51.4" y="27.8" style="fill:#FFFFFF;" width="6.8" height="6.8"/>
	<rect x="61.7" y="27.8" style="fill:#FFFFFF;" width="6.8" height="6.8"/>
	<rect x="10.2" y="37.4" style="fill:#FFFFFF;" width="6.8" height="6.8"/>
	<rect x="20.5" y="37.4" style="fill:#FFFFFF;" width="6.8" height="6.8"/>
	<rect x="30.8" y="37.4" style="fill:#FFFFFF;" width="6.8" height="6.8"/>
	<rect x="51.4" y="37.4" style="fill:#FFFFFF;" width="6.8" height="6.8"/>
	<rect x="61.7" y="37.4" style="fill:#FFFFFF;" width="6.8" height="6.8"/>
	<rect x="10.2" y="47.1" style="fill:#FFFFFF;" width="6.8" height="6.8"/>
	<rect x="20.5" y="47.1" style="fill:#FFFFFF;" width="6.8" height="6.8"/>
	<rect x="41.1" y="47.1" style="fill:#FFFFFF;" width="6.8" height="6.8"/>
	<rect x="51.4" y="47.1" style="fill:#FFFFFF;" width="6.8" height="6.8"/>
	<rect x="61.7" y="47.1" style="fill:#FFFFFF;" width="6.8" height="6.8"/>
	<rect x="10.2" y="56.7" style="fill:#FFFFFF;" width="6.8" height="6.8"/>
	<rect x="20.5" y="56.7" style="fill:#FFFFFF;" width="6.8" height="6.8"/>
	<rect x="30.8" y="56.7" style="fill:#FFFFFF;" width="6.8" height="6.8"/>
	<rect x="41.1" y="56.7" style="fill:#FFFFFF;" width="6.8" height="6.8"/>
	<rect x="51.4" y="56.7" style="fill:#FFFFFF;" width="6.8" height="6.8"/>
	<rect x="61.7" y="56.7" style="fill:#FFFFFF;" width="6.8" height="6.8"/>
	<rect x="10.2" y="66.4" style="fill:#FFFFFF;" width="6.8" height="6.8"/>
	<rect x="20.5" y="66.4" style="fill:#FFFFFF;" width="6.8" height="6.8"/>
	<rect x="30.8" y="66.4" style="fill:#FFFFFF;" width="6.8" height="6.8"/>
	<rect x="51.9" y="66.9" style="fill:#FFFFFF;" width="5.8" height="5.8"/>
	<rect x="20.5" y="76" style="fill:#FFFFFF;" width="6.8" height="6.8"/>
	<rect x="30.8" y="76" style="fill:#FFFFFF;" width="6.8" height="6.8"/>
	<rect x="41.6" y="76.5" style="fill:#FFFFFF;" width="5.8" height="5.8"/>
	<rect x="51.9" y="76.5" style="fill:#FFFFFF;" width="5.8" height="5.8"/>
	<rect x="62.2" y="76.5" style="fill:#FFFFFF;" width="5.8" height="5.8"/>
	<rect x="10.7" y="86.2" style="fill:#FFFFFF;" width="5.8" height="5.8"/>
	<rect x="31.3" y="86.2" style="fill:#FFFFFF;" width="5.8" height="5.8"/>
	<rect x="51.9" y="86.2" style="fill:#FFFFFF;" width="5.8" height="5.8"/>
	<rect x="10.7" y="95.8" style="fill:#FFFFFF;" width="5.8" height="5.8"/>
	<rect x="21" y="95.8" style="fill:#FFFFFF;" width="5.8" height="5.8"/>
	<rect x="41.6" y="95.8" style="fill:#FFFFFF;" width="5.8" height="5.8"/>
	<rect x="62.2" y="95.8" style="fill:#FFFFFF;" width="5.8" height="5.8"/>
</g>
</svg>
